<?xml version="1.0" encoding="UTF-8" standalone="no"?>
<!DOCTYPE svg PUBLIC "-//W3C//DTD SVG 1.1//EN"
 "http://www.w3.org/Graphics/SVG/1.1/DTD/svg11.dtd">
<!-- Generated by graphviz version 2.38.0 (20140413.2041)
 -->
<!-- Title: models_diagram Pages: 1 -->
<svg width="466pt" height="230pt"
 viewBox="0.00 0.00 466.34 230.00" xmlns="http://www.w3.org/2000/svg" xmlns:xlink="http://www.w3.org/1999/xlink">
<g id="graph0" class="graph" transform="scale(1 1) rotate(0) translate(4 226)">
<title>models_diagram</title>
<polygon fill="none" stroke="none" points="-4,4 -4,-226 462.343,-226 462.343,4 -4,4"/>
<!-- _diagram_info -->
<g id="node1" class="node"><title>_diagram_info</title>
<text text-anchor="start" x="8" y="-207.6" font-family="Times,serif" font-size="13.00">Models diagram</text>
<text text-anchor="start" x="8" y="-193.6" font-family="Times,serif" font-size="13.00">Date: Aug 08 2017 &#45; 23:36</text>
<text text-anchor="start" x="8" y="-179.6" font-family="Times,serif" font-size="13.00">Migration version: 20170809032330</text>
<text text-anchor="start" x="8" y="-165.6" font-family="Times,serif" font-size="13.00">Generated by RailRoady 1.5.3</text>
<text text-anchor="start" x="8" y="-151.6" font-family="Times,serif" font-size="13.00">http://railroady.prestonlee.com</text>
</g>
<!-- MovieTag -->
<g id="node2" class="node"><title>MovieTag</title>
<ellipse fill="none" stroke="black" cx="259" cy="-18" rx="48.1917" ry="18"/>
<text text-anchor="middle" x="259" y="-14.3" font-family="Times,serif" font-size="14.00">MovieTag</text>
</g>
<!-- Tag -->
<g id="node3" class="node"><title>Tag</title>
<ellipse fill="none" stroke="black" cx="259" cy="-183" rx="27" ry="18"/>
<text text-anchor="middle" x="259" y="-179.3" font-family="Times,serif" font-size="14.00">Tag</text>
</g>
<!-- Tag&#45;&gt;MovieTag -->
<g id="edge1" class="edge"><title>Tag&#45;&gt;MovieTag</title>
<path fill="none" stroke="#d36f36" d="M253.107,-156.882C248.628,-134.584 243.745,-101.118 247,-72 247.958,-63.4299 249.762,-54.2228 251.685,-45.9264"/>
<ellipse fill="none" stroke="#d36f36" cx="253.961" cy="-160.935" rx="4.00001" ry="4.00001"/>
<polygon fill="#d36f36" stroke="#d36f36" points="251.734,-45.7294 258.5,-37.0996 252.932,-40.8751 254.131,-36.0209 254.131,-36.0209 254.131,-36.0209 252.932,-40.8751 249.762,-34.9422 251.734,-45.7294 251.734,-45.7294"/>
</g>
<!-- Movie -->
<g id="node5" class="node"><title>Movie</title>
<ellipse fill="none" stroke="black" cx="290" cy="-90" rx="34.394" ry="18"/>
<text text-anchor="middle" x="290" y="-86.3" font-family="Times,serif" font-size="14.00">Movie</text>
</g>
<!-- Tag&#45;&gt;Movie -->
<g id="edge2" class="edge"><title>Tag&#45;&gt;Movie</title>
<path fill="none" stroke="#c02ddf" d="M267.926,-155.797C272.029,-143.752 276.887,-129.493 280.999,-117.422"/>
<polygon fill="#c02ddf" stroke="#c02ddf" points="267.911,-155.843 260.426,-163.858 266.298,-160.576 264.686,-165.309 264.686,-165.309 264.686,-165.309 266.298,-160.576 268.946,-166.76 267.911,-155.843 267.911,-155.843"/>
<polygon fill="#c02ddf" stroke="#c02ddf" points="281.02,-117.359 288.505,-109.344 282.633,-112.626 284.245,-107.893 284.245,-107.893 284.245,-107.893 282.633,-112.626 279.986,-106.442 281.02,-117.359 281.02,-117.359"/>
</g>
<!-- ApplicationRecord -->
<g id="node4" class="node"><title>ApplicationRecord</title>
<ellipse fill="none" stroke="black" cx="381" cy="-183" rx="77.1866" ry="18"/>
<text text-anchor="middle" x="381" y="-179.3" font-family="Times,serif" font-size="14.00">ApplicationRecord</text>
</g>
<!-- Movie&#45;&gt;MovieTag -->
<g id="edge3" class="edge"><title>Movie&#45;&gt;MovieTag</title>
<path fill="none" stroke="#e7e822" d="M279.399,-65.0625C276.552,-58.6325 273.458,-51.6473 270.561,-45.106"/>
<ellipse fill="none" stroke="#e7e822" cx="281.034" cy="-68.7536" rx="4.00002" ry="4.00002"/>
<polygon fill="#e7e822" stroke="#e7e822" points="270.558,-45.0997 270.624,-34.134 268.534,-40.528 266.509,-35.9562 266.509,-35.9562 266.509,-35.9562 268.534,-40.528 262.395,-37.7784 270.558,-45.0997 270.558,-45.0997"/>
</g>
</g>
</svg>
